<?xml version="1.0" encoding="utf-8"?>
<!-- Generator: Adobe Illustrator 27.3.1, SVG Export Plug-In . SVG Version: 6.00 Build 0)  -->
<svg version="1.1" id="Layer_1" xmlns="http://www.w3.org/2000/svg" xmlns:xlink="http://www.w3.org/1999/xlink" x="0px" y="0px"
	 viewBox="0 0 256 160.36" style="enable-background:new 0 0 256 160.36;" xml:space="preserve">
<style type="text/css">
	.st0{fill:#009999;}
	.st1{fill:#00C1B3;}
</style>
<g>
	<path class="st0" d="M256,126.7c-1.03,1.98-1.85,4.12-3.14,5.92c-3.5,4.89-8.63,6.5-14.39,6.61c-3.39,0.07-3.4,0.07-3.41,3.52
		c-0.01,3.5,0.05,7-0.02,10.49c-0.11,5.1-2.16,7.1-7.19,7.1c-9.66,0.01-19.32,0.01-28.98,0c-5.2-0.01-6.99-1.83-7-7.1
		c-0.01-3.75-0.12-7.5,0.04-11.24c0.1-2.27-0.78-2.82-2.9-2.81c-11.41,0.08-22.81,0.04-34.22,0.04c-28.98,0-57.95,0-86.93,0
		c-3.55,0-3.55,0.01-3.55,3.56c0,3.83,0.03,7.66-0.02,11.49c-0.05,3.93-2.11,6.02-6.04,6.04c-10.32,0.04-20.65,0.04-30.97,0
		c-3.5-0.01-5.58-1.64-5.88-5.16c-0.37-4.3-0.33-8.65-0.24-12.97c0.05-2.28-0.71-3-3-3.02c-9.4-0.07-15.61-4.47-17.68-12.39
		c-0.37-1.43-0.46-2.96-0.46-4.44C0,101.37-0.02,80.39,0.02,59.41c0.02-9.73,6.92-16.62,16.68-16.76c2.83-0.04,5.66-0.02,8.49-0.01
		c11.06,0.03,17.91,6.79,17.99,17.9c0.07,9.57,0,19.15,0.02,28.73c0.01,4.94,1.82,6.78,6.77,6.78c52.04,0.01,104.08,0.01,156.12,0
		c5.09,0,6.88-1.81,6.89-6.91c0.01-9.49-0.02-18.98,0.02-28.48c0.03-6.88,2.44-12.53,8.72-16.01c5.6-3.11,20.89-2.85,26.48,0.32
		c4.1,2.32,6.29,6.04,7.81,10.29C256,79.07,256,102.89,256,126.7z"/>
	<path class="st1" d="M128.23,0.12c29.64,0,59.27,0.19,88.91-0.12c8.65-0.09,17.92,5.5,17.92,17.73c0,3.83-0.12,7.66,0.04,11.49
		c0.1,2.48-0.68,3.35-3.25,3.28c-7.47-0.2-14.33,1.59-20.01,6.83c-5.4,4.98-8.58,11.01-8.69,18.41c-0.13,8.32-0.11,16.65-0.03,24.97
		c0.03,2.34-0.68,3.19-3.12,3.18c-47.95-0.06-95.9-0.06-143.85,0c-2.48,0-3.12-0.92-3.09-3.22c0.09-7.99,0.1-15.98,0.01-23.97
		c-0.14-12.53-8.4-22.8-20.59-25.47c-2.89-0.63-5.94-0.66-8.92-0.76c-1.67-0.06-2.48-0.55-2.43-2.29c0.14-5.24-0.06-10.5,0.41-15.7
		c0.78-8.54,7.52-14.34,16.29-14.35C67.96,0.1,98.09,0.12,128.23,0.12z"/>
</g>
</svg>
