<?xml version="1.0" encoding="utf-8"?>
<!-- Generator: Adobe Illustrator 27.3.1, SVG Export Plug-In . SVG Version: 6.00 Build 0)  -->
<svg version="1.1" id="Layer_1" xmlns="http://www.w3.org/2000/svg" xmlns:xlink="http://www.w3.org/1999/xlink" x="0px" y="0px"
	 viewBox="0 0 151.47 160.36" style="enable-background:new 0 0 151.47 160.36;" xml:space="preserve">
<style type="text/css">
	.st0{fill:#009999;}
	.st1{fill:#00C1B3;}
</style>
<g>
	<path class="st0" d="M31,114.52c-6.39,0-12.79-0.05-19.18,0.03c-1.73,0.02-2.38-0.38-2.37-2.27c0.09-12.24,0.07-39.45,0.01-51.68
		c-0.01-1.43,0.45-2.21,1.7-2.9C32.2,46.06,53.21,34.39,74.21,22.68c1.09-0.61,1.91-0.64,3.01-0.03
		c21.05,11.74,42.12,23.46,63.21,35.14c1.1,0.61,1.57,1.28,1.57,2.56c-0.04,12.37-0.05,39.72,0.01,52.1
		c0.01,1.67-0.57,2.1-2.14,2.09c-12.99-0.04-25.99-0.05-38.98,0.01c-1.7,0.01-2.24-0.51-2.23-2.23c0.05-7.84,0.18-30.65-0.11-38.48
		c-0.25-6.92-3.26-12.63-9.19-16.42c-9.06-5.79-19.56-5.48-28.25,0.68c-5.13,3.63-7.9,8.85-8.15,15.07
		c-0.33,7.96-0.26,30.92-0.2,38.89c0.01,2.03-0.62,2.54-2.58,2.51C43.78,114.45,37.39,114.52,31,114.52z"/>
	<path class="st1" d="M5.42,153.07c0-4.25,0-8.4,0-12.7c3.11-0.12,6.15-0.28,9.14,0.61c5.1,1.53,10.16,3.21,15.31,4.54
		c9.34,2.4,18.32,1.25,27.13-2.74c11.5-5.21,23.36-6.15,35.4-1.66c1.18,0.44,2.34,0.97,3.47,1.54c11.31,5.71,22.83,6.18,34.58,1.43
		c2.2-0.89,4.45-1.64,6.65-2.54c3.38-1.37,6.86-1.43,10.63-1.13c0,2.8,0.03,5.53-0.01,8.25c-0.02,1.46,0.35,3.37-0.41,4.22
		c-0.66,0.73-2.68,0.33-4.09,0.29c-3.74-0.12-7.13,1.18-10.57,2.39c-4.37,1.53-8.72,3.25-13.22,4.21
		c-7.01,1.49-13.79-0.03-20.11-3.21c-8.03-4.03-16.45-5.87-25.41-5.27c-6.26,0.42-12.43,1.54-18.04,4.37
		c-10.54,5.31-21.14,5.36-32.05,1.47c-3.92-1.4-7.9-2.65-11.93-3.66C9.89,153,7.72,153.2,5.42,153.07z"/>
	<path class="st1" d="M147.72,122.62c0,4.09,0.03,7.99-0.06,11.89c-0.01,0.31-0.8,0.84-1.25,0.88c-2.21,0.16-4.51-0.18-6.62,0.33
		c-3.51,0.86-6.94,2.14-10.33,3.43c-5.11,1.95-10.27,3.51-15.83,3.34c-5.11-0.15-9.92-1.46-14.44-3.74
		c-7.97-4.02-16.37-5.77-25.26-5.21c-6.22,0.4-12.35,1.49-17.9,4.3c-10.17,5.14-20.36,4.95-30.84,1.31
		c-3.83-1.33-7.72-2.52-11.67-3.41c-2.17-0.49-4.51-0.29-6.78-0.29c-1.1,0-1.46-0.34-1.44-1.45c0.06-3.74,0.02-7.49,0.02-11.38
		c3.17-0.22,6.21-0.3,9.19,0.57c5.26,1.55,10.47,3.29,15.78,4.63c9.13,2.3,17.92,1.12,26.53-2.74c12.96-5.81,26.12-6.53,39.14-0.14
		c11.33,5.56,22.75,6.08,34.44,1.38c2.2-0.89,4.45-1.64,6.65-2.54C140.44,122.42,143.93,122.33,147.72,122.62z"/>
	<path class="st1" d="M146.05,49.76c-1.14-0.46-2.33-0.81-3.4-1.4c-21.23-11.77-42.46-23.54-63.63-35.42
		c-2.37-1.33-4.18-1.35-6.56-0.01C51.35,24.78,30.16,36.51,8.99,48.26c-0.8,0.44-1.63,0.91-2.51,1.11C3.82,50,1.31,48.59,0.35,46.05
		c-0.92-2.42,0.02-5.08,2.39-6.42c5.57-3.14,11.17-6.22,16.76-9.33c17.48-9.71,34.97-19.39,52.41-29.16
		c2.65-1.49,4.93-1.52,7.6-0.03c22.79,12.74,45.64,25.39,68.46,38.08c3.05,1.7,4.17,4.25,3.11,6.97
		C150.27,48.18,148.32,49.52,146.05,49.76z"/>
</g>
</svg>
