<?xml version="1.0" encoding="utf-8"?>
<!-- Generator: Adobe Illustrator 27.3.1, SVG Export Plug-In . SVG Version: 6.00 Build 0)  -->
<svg version="1.1" id="Layer_1" xmlns="http://www.w3.org/2000/svg" xmlns:xlink="http://www.w3.org/1999/xlink" x="0px" y="0px"
	 viewBox="0 0 187.04 160.36" style="enable-background:new 0 0 187.04 160.36;" xml:space="preserve">
<style type="text/css">
	.st0{fill:#009999;}
	.st1{fill:#00C1B3;}
</style>
<g>
	<g>
		<path class="st0" d="M179.91,146.81c-4.6-0.03-9.17-0.05-13.78,0.03c-1.37,0.03-2.1-0.46-2.74-1.64
			c-20.34-37.4-40.73-74.77-61.13-112.11c-0.73-1.29-0.78-2.29-0.03-3.63c3.5-6.24,6.86-12.54,10.3-18.81
			c1.02-1.86,1.48-3.77,0.81-5.81c-0.83-2.69-2.72-4.36-5.49-4.76c-3.07-0.4-5.46,0.81-6.99,3.52c-2.39,4.28-4.74,8.61-7.32,13.32
			c-0.57-0.97-0.91-1.53-1.24-2.13c-1.99-3.66-3.98-7.32-6-10.98c-1.18-2.15-2.93-3.5-5.41-3.77c-2.64-0.27-4.79,0.7-6.3,2.88
			c-1.59,2.31-1.67,4.82-0.32,7.29c3.5,6.46,6.99,12.94,10.57,19.37c0.65,1.16,0.7,2.07,0.05,3.26
			C64.44,70.32,43.99,107.8,23.57,145.3c-0.62,1.13-1.32,1.56-2.61,1.53c-4.65-0.08-9.31-0.05-13.96-0.03
			c-4.04,0.03-6.97,2.85-7,6.7c-0.03,3.93,2.93,6.83,7.08,6.83c57.6,0.03,115.2,0.03,172.8,0c4.17,0,7.13-2.85,7.16-6.75
			C187.04,149.69,184.05,146.84,179.91,146.81z M113.43,146.73H73.77c-0.05-0.62-0.16-1.21-0.16-1.8c0-8.13-0.05-16.25,0-24.38
			c0.11-10.41,7.05-18.38,17.3-19.96c10.3-1.61,20.72,5.95,22.09,16.25c0.48,3.69,0.38,7.45,0.4,11.19
			C113.48,134.19,113.43,140.35,113.43,146.73z"/>
	</g>
	<path class="st1" d="M113.43,146.73H73.77c-0.05-0.62-0.16-1.21-0.16-1.8c0-8.13-0.05-16.25,0-24.38
		c0.11-10.41,7.05-18.38,17.3-19.96c10.3-1.61,20.72,5.95,22.09,16.25c0.48,3.69,0.38,7.45,0.4,11.19
		C113.48,134.19,113.43,140.35,113.43,146.73z"/>
</g>
</svg>
