<?xml version="1.0" encoding="utf-8"?>
<!-- Generator: Adobe Illustrator 27.3.1, SVG Export Plug-In . SVG Version: 6.00 Build 0)  -->
<svg version="1.1" id="Layer_1" xmlns="http://www.w3.org/2000/svg" xmlns:xlink="http://www.w3.org/1999/xlink" x="0px" y="0px"
	 viewBox="0 0 183.22 160.36" style="enable-background:new 0 0 183.22 160.36;" xml:space="preserve">
<style type="text/css">
	.st0{fill:#009999;}
	.st1{fill:#00C1B3;}
</style>
<g>
	<path class="st0" d="M0,76.19C0,75,0,73.8,0,72.61C10.29,55.8,20.58,38.98,30.85,22.16c1.04-1.7,2.33-2.95,4.25-3.6
		c17.89-5.99,35.78-12,53.65-18.05c1.97-0.67,3.77-0.67,5.73-0.01c17.64,5.98,35.29,11.93,52.96,17.82
		c2.29,0.76,3.87,2.09,5.12,4.13c10.18,16.74,20.43,33.44,30.66,50.16c0,1.19,0,2.39,0,3.58c-2.3,5.24-7.17,3.76-11.37,4.09
		c0,0.99,0,1.76,0,2.53c0,23.61,0,47.22,0,70.83c0,4.55-2.15,6.73-6.63,6.73c-49.01,0-98.01,0-147.02,0c-4.72,0-6.82-2.13-6.82-6.91
		c0-23.61,0-47.22,0-70.83c0-0.75,0-1.51,0-2.41C7.02,80.06,2.3,81.33,0,76.19z M57.42,148.64c22.9,0,45.6,0,68.32,0
		c0-19.04,0-37.96,0-56.87c-22.84,0-45.54,0-68.32,0C57.42,110.77,57.42,129.64,57.42,148.64z"/>
	<path class="st1" d="M103.14,45.85c-0.02,6.42-5.21,11.5-11.7,11.45c-6.32-0.05-11.38-5.22-11.36-11.61
		c0.02-6.42,5.21-11.49,11.7-11.44C98.11,34.29,103.16,39.45,103.14,45.85z"/>
	<rect x="57.42" y="91.77" class="st1" width="68.32" height="56.87"/>
</g>
</svg>
