<?xml version="1.0" encoding="utf-8"?>
<!-- Generator: Adobe Illustrator 27.3.1, SVG Export Plug-In . SVG Version: 6.00 Build 0)  -->
<svg version="1.1" id="Layer_1" xmlns="http://www.w3.org/2000/svg" xmlns:xlink="http://www.w3.org/1999/xlink" x="0px" y="0px"
	 viewBox="0 0 201.6 136.64" style="enable-background:new 0 0 201.6 136.64;" xml:space="preserve">
<style type="text/css">
	.st0{fill:#009999;}
	.st1{fill:#00C1B3;}
</style>
<g>
	<g>
		<path class="st0" d="M186.99,122.37c-57.55,0-114.8,0-172.38,0c0,2.28,0.02,4.49,0,6.71c-0.05,4.34-3.1,7.53-7.21,7.56
			c-4.22,0.04-7.37-3.17-7.37-7.62c-0.02-16.85-0.06-33.7,0.02-50.54c0.06-11.43,9.67-21.1,21.1-21.11
			c53.09-0.05,106.18-0.05,159.27,0c11.46,0.01,21.07,9.63,21.14,21.06c0.09,16.92,0.04,33.85,0.02,50.77
			c-0.01,4.29-3.18,7.46-7.32,7.44c-4.11-0.01-7.2-3.21-7.25-7.51C186.97,126.96,186.99,124.8,186.99,122.37z"/>
		<path class="st1" d="M108.1,50.44c-5.03,0-9.65,0-14.59,0c0-2.09,0.01-4.09,0-6.08c-0.03-9.32-6.03-15.36-15.3-15.38
			c-6.52-0.02-13.03-0.02-19.55,0C49.4,29,43.41,35.04,43.38,44.37c-0.01,1.94,0,3.87,0,6.18c-3.72,0-7.28,0-10.84,0
			c-3.51,0-7.03,0-10.81,0c-0.05-0.91-0.12-1.7-0.12-2.49c-0.01-13.33-0.01-26.66,0-39.99C21.6,2.86,24.45,0,29.64,0
			C77.11,0,124.59,0,172.07,0.01c5.01,0,7.93,2.94,7.93,7.96c0.01,13.4,0,26.81,0,40.21c0,0.67,0,1.33,0,2.18
			c-7.23,0-14.3,0-21.79,0c0-2.29,0.04-4.65-0.01-7.01c-0.14-6.49-4.08-11.87-10.08-13.65c-1.56-0.46-3.23-0.68-4.86-0.7
			c-6.74-0.08-13.48-0.06-20.22-0.03c-8.82,0.04-14.89,6.17-14.95,15.04C108.09,46.1,108.1,48.18,108.1,50.44z"/>
	</g>
</g>
</svg>
