<svg data-v-06eeb499="" id="wave" viewBox="0 0 1440 150" version="1.1" xmlns="http://www.w3.org/2000/svg" style="transform: rotate(0deg); transition: all 0.3s ease 0s;"><defs data-v-06eeb499=""><linearGradient data-v-06eeb499="" id="sw-gradient-0" x1="0" x2="0" y1="1" y2="0"><stop data-v-06eeb499="" stop-color="rgba(255, 255, 255, 1)" offset="0%"></stop><stop data-v-06eeb499="" stop-color="rgba(255, 255, 255, 1)" offset="100%"></stop></linearGradient></defs><path data-v-06eeb499="" fill="url(#sw-gradient-0)" d="M0,15L120,35C240,55,480,95,720,92.5C960,90,1200,45,1440,22.5C1680,0,1920,0,2160,15C2400,30,2640,60,2880,67.5C3120,75,3360,60,3600,55C3840,50,4080,55,4320,57.5C4560,60,4800,60,5040,65C5280,70,5520,80,5760,70C6000,60,6240,30,6480,15C6720,0,6960,0,7200,7.5C7440,15,7680,30,7920,32.5C8160,35,8400,25,8640,30C8880,35,9120,55,9360,55C9600,55,9840,35,10080,45C10320,55,10560,95,10800,97.5C11040,100,11280,65,11520,55C11760,45,12000,60,12240,57.5C12480,55,12720,35,12960,35C13200,35,13440,55,13680,70C13920,85,14160,95,14400,105C14640,115,14880,125,15120,115C15360,105,15600,75,15840,65C16080,55,16320,65,16560,77.5C16800,90,17040,105,17160,112.5L17280,120L17280,150L17160,150C17040,150,16800,150,16560,150C16320,150,16080,150,15840,150C15600,150,15360,150,15120,150C14880,150,14640,150,14400,150C14160,150,13920,150,13680,150C13440,150,13200,150,12960,150C12720,150,12480,150,12240,150C12000,150,11760,150,11520,150C11280,150,11040,150,10800,150C10560,150,10320,150,10080,150C9840,150,9600,150,9360,150C9120,150,8880,150,8640,150C8400,150,8160,150,7920,150C7680,150,7440,150,7200,150C6960,150,6720,150,6480,150C6240,150,6000,150,5760,150C5520,150,5280,150,5040,150C4800,150,4560,150,4320,150C4080,150,3840,150,3600,150C3360,150,3120,150,2880,150C2640,150,2400,150,2160,150C1920,150,1680,150,1440,150C1200,150,960,150,720,150C480,150,240,150,120,150L0,150Z" style="transform: translate(0px, 0px); opacity: 1;"></path></svg>