<?xml version="1.0" encoding="utf-8"?>
<!-- Generator: Adobe Illustrator 27.3.1, SVG Export Plug-In . SVG Version: 6.00 Build 0)  -->
<svg version="1.1" id="Layer_1" xmlns="http://www.w3.org/2000/svg" xmlns:xlink="http://www.w3.org/1999/xlink" x="0px" y="0px"
	 viewBox="0 0 162.5 136.64" style="enable-background:new 0 0 162.5 136.64;" xml:space="preserve">
<style type="text/css">
	.st0{fill:#009999;}
	.st1{fill:#00C1B3;}
</style>
<g>
	<path class="st0" d="M162.5,72.24c0,20.63,0,41.26,0,61.89c-1.2,2.29-3.3,2.51-5.56,2.51c-16.97-0.02-33.94-0.01-50.91-0.01
		c-2.82,0-2.83-0.01-2.83-2.92c0-14.64,0-29.29-0.01-43.93c0-3.92-0.94-4.84-4.89-4.84c-11.37-0.01-22.73,0-34.1,0
		c-0.53,0-1.06,0-1.58,0.04c-1.96,0.15-3.07,1.24-3.24,3.22c-0.07,0.79-0.06,1.58-0.06,2.38c0,14.17,0.01,28.34-0.01,42.51
		c0,3.92,0.36,3.54-3.62,3.54c-11.53,0.02-23.05,0.01-34.58,0.01c-5.39,0-10.79-0.02-16.18,0c-2.09,0.01-3.87-0.52-4.93-2.51
		c0-20.63,0-41.26,0-61.89c0.77-1.46,2.05-2.16,3.57-2.66c12.79-4.23,25.56-8.53,38.36-12.73c1.63-0.53,2.2-1.32,2.19-3.04
		c-0.08-10.2-0.01-16.3-0.06-26.51c-0.01-2.27,0.78-3.87,2.73-5.15C57.21,15.29,67.56,8.34,77.95,1.42
		c2.84-1.89,3.79-1.89,6.62-0.01c10.29,6.86,20.56,13.76,30.9,20.55c2.16,1.41,3.01,3.15,2.99,5.66
		c-0.07,10.1,0.01,16.09-0.07,26.19c-0.01,1.73,0.58,2.49,2.2,3.02c12.8,4.2,25.57,8.5,38.36,12.73
		C160.46,70.07,161.74,70.79,162.5,72.24z M81.19,40.13c3.54,0,7.08,0.03,10.62-0.02c0.81-0.01,1.71-0.18,2.41-0.56
		c1.33-0.72,1.86-2.38,1.44-3.87c-0.41-1.47-1.68-2.42-3.49-2.43c-7.19-0.03-14.37-0.04-21.56-0.01c-2.46,0.01-3.86,1.31-3.87,3.42
		c-0.01,2.18,1.42,3.45,3.99,3.46C74.21,40.15,77.7,40.13,81.19,40.13z M129.39,92.32c-2.43,0-4.86-0.03-7.29,0.01
		c-2.2,0.03-3.59,1.34-3.64,3.34c-0.05,2.13,1.24,3.51,3.56,3.55c4.81,0.07,9.62,0.06,14.42,0.01c2.24-0.03,3.75-1.54,3.72-3.48
		c-0.03-1.98-1.56-3.38-3.8-3.41C134.04,92.29,131.71,92.32,129.39,92.32z M33.28,92.32c-2.43,0-4.86-0.03-7.29,0.01
		c-2.1,0.04-3.61,1.48-3.64,3.4c-0.04,1.9,1.42,3.44,3.55,3.47c4.91,0.07,9.83,0.07,14.74-0.01c2.21-0.03,3.46-1.46,3.41-3.53
		c-0.04-1.99-1.44-3.31-3.63-3.34C38.03,92.29,35.65,92.32,33.28,92.32z"/>
	<path class="st1" d="M62.74,112.91c0-6.85-0.01-13.71,0-20.56c0-1.82,1.48-3.3,3.31-3.3c10.14-0.01,20.27-0.01,30.41,0
		c1.82,0,3.3,1.48,3.3,3.3c0.01,14.75,0.01,29.5,0,44.25c-12.34,0.02-24.67,0.02-37.01,0C62.73,128.7,62.74,120.81,62.74,112.91z"/>
</g>
</svg>
